# xmcd
#
# Track frame offsets:
#	150
#	12751
#	26674
#
# Disc length: 529 seconds
#
# Revision: 0
# Processed by: cddbd v1.5.2PL0 Copyright (c) Steve Scherf et al.
# Submitted via: audiograbber 1.83.01
#
DISCID=17020f03
DTITLE=Группа 2А - Первые записи
DYEAR=2013
DGENRE=Funk
TTITLE0=Морской ветерок
TTITLE1=Нашим любимым
TTITLE2=Немного блюзовой гармонии
EXTD=Дед и внук - Александры
EXTT0=
EXTT1=
EXTT2=
PLAYORDER=
